<svg width="800" height="800" xmlns="http://www.w3.org/2000/svg">

 <g>
  <title>background</title>
  <rect fill="none" id="canvas_background" height="402" width="582" y="-1" x="-1"/>
 </g>
 <g>
  <title>Layer 1</title>
  <path fill="#7341a5" id="svg_2" d="m196.3,427.7c6.4,6.4 13.9,9.6 22.4,9.6l138.7,0l0,293.3c0,18.1 13.9,32 32,32l53.3,0c18.1,0 32,-13.9 32,-32l0,-293.3l181.3,0c18.1,0 32,-13.9 32,-32l0,-256c0,-18.1 -13.9,-32 -32,-32l-181.3,0l0,-53.3c0,-18.1 -13.9,-32 -32,-32l-53.3,0c-18.1,0 -32,13.9 -32,32l0,53.3l-138.7,0c-8.5,0 -17.1,3.2 -22.4,9.6l-128,128c-12.8,12.8 -12.8,33.1 0,44.8l128,128zm35.2,-246.4l392.5,0l0,192l-392.5,0l-96,-96l96,-96z"/>
 </g>
</svg>